<svg width="25" height="8" viewBox="0 0 25 8" fill="none" xmlns="http://www.w3.org/2000/svg">
<g clip-path="url(#clip0_95_14440)">
<path d="M5.81943 5.39599H2.65067L1.95341 7.88936H0.15918L2.4064 0.110596H6.06147L8.32202 7.89157H6.5278L5.81943 5.39821V5.39599ZM5.38642 3.85175L5 1.5H3.5L3.08146 3.85175H5.38642Z" fill="black"/>
<path d="M12.2968 8.00001C9.48337 8.00001 8.43082 6.85178 8.43082 4.88718H10.2028C10.2028 6.07966 10.8002 6.45355 12.3524 6.45355C13.4937 6.45355 13.869 6.18807 13.869 5.76993C13.869 5.20798 12.9164 4.95355 11.775 4.56639C10.1251 4.0155 8.78389 3.57302 8.78389 2.0509C8.78389 0.725679 9.83644 -0.00219727 11.8527 -0.00219727C14.2443 -0.00219727 15.319 1.2124 15.319 2.75665H13.547C13.547 1.80754 12.8165 1.54205 11.8527 1.54205C11.0555 1.54205 10.5559 1.71904 10.5559 2.11506C10.5559 2.46904 10.7447 2.59957 11.9948 3.01993C13.4338 3.50444 15.6388 4.12391 15.6388 5.74559C15.6388 7.08187 14.6973 7.9978 12.2946 7.9978L12.2968 8.00001Z" fill="black"/>
<path d="M19.4515 4.00661L24.1592 7.89157H21.5678L18.3013 5.14378V7.89157H16.5293V0.110596H18.3013V2.86945L21.5678 0.110596H24.1592L19.4515 4.00661Z" fill="black"/>
</g>
<defs>
<clipPath id="clip0_95_14440">
<rect width="24" height="8" fill="white" transform="translate(0.15918)"/>
</clipPath>
</defs>
</svg>
