<svg width="155" height="146" viewBox="0 0 155 146" fill="none" xmlns="http://www.w3.org/2000/svg">
<path d="M74.5535 26.1633L3.15525 80.781C0.38806 82.8987 0.38806 87.074 3.15525 89.1917L74.5535 143.806C76.4431 145.252 79.0648 145.252 80.956 143.806L152.354 89.1886C155.121 87.0708 155.121 82.8956 152.354 80.7778L80.956 26.1633C79.0664 24.7177 76.4446 24.7177 74.5535 26.1633Z" fill="#F3F5F4" stroke="#231815" stroke-miterlimit="10"/>
<path d="M74.68 39.3818L6.29087 91.6978L74.6231 143.865C76.4715 145.277 79.0347 145.272 80.8801 143.855L150.188 90.6168L80.8674 39.3327C79.0237 37.9678 76.5016 37.9885 74.68 39.3818Z" fill="#C3FFB2" stroke="#231815" stroke-miterlimit="10"/>
<path d="M75.2705 105.167L19.8652 63.2304L18.325 50H137L136.5 62L80.2389 105.167C78.7713 106.277 76.7369 106.277 75.2705 105.167Z" fill="#F3F5F4" stroke="#231815" stroke-miterlimit="10"/>
<path d="M75.2705 4.83256L19.8652 46.772C17.7179 48.3982 17.7179 51.6043 19.8652 53.2304L75.2705 95.1674C76.7369 96.2775 78.7713 96.2775 80.2389 95.1674L135.644 53.228C137.792 51.6018 137.792 48.3957 135.644 46.7696L80.2389 4.83256C78.7725 3.72248 76.7381 3.72248 75.2705 4.83256Z" fill="white" stroke="#231815" stroke-miterlimit="10"/>
</svg>
