<svg width="277" height="49" viewBox="0 0 277 49" fill="none" xmlns="http://www.w3.org/2000/svg">
<path d="M25.4354 8.70116L1.69022 26.8655C0.769927 27.5698 0.769927 28.9584 1.69022 29.6627L25.4354 47.826C26.0638 48.3068 26.9357 48.3068 27.5646 47.826L51.3098 29.6617C52.2301 28.9574 52.2301 27.5688 51.3098 26.8645L27.5646 8.70116C26.9362 8.22038 26.0643 8.22038 25.4354 8.70116Z" fill="#F3F5F4" stroke="#231815" stroke-miterlimit="10"/>
<path d="M25.4768 13.0973L2.73242 30.4962L25.4579 47.8456C26.0726 48.3153 26.9251 48.3137 27.5388 47.8424L50.5887 30.1367L27.5346 13.081C26.9214 12.6271 26.0826 12.6339 25.4768 13.0973Z" fill="#C3FFB2" stroke="#231815" stroke-miterlimit="10"/>
<path d="M25.6729 34.9759L7.2466 21.0287L6.73438 16.6287H46.2025L46.0362 20.6195L27.3253 34.9759C26.8372 35.345 26.1606 35.345 25.6729 34.9759Z" fill="#F3F5F4" stroke="#231815" stroke-miterlimit="10"/>
<path d="M25.6729 1.60721L7.24655 15.5551C6.5324 16.096 6.5324 17.1622 7.24655 17.703L25.6729 31.6502C26.1605 32.0194 26.8371 32.0194 27.3252 31.6502L45.7515 17.7022C46.4657 17.1614 46.4657 16.0952 45.7515 15.5543L27.3252 1.60721C26.8375 1.23803 26.1609 1.23803 25.6729 1.60721Z" fill="white" stroke="#231815" stroke-miterlimit="10"/>
<path d="M80.7746 35.3544C80.156 35.3544 79.676 35.1837 79.3346 34.8424C79.0146 34.5011 78.8546 34.0104 78.8546 33.3704V14.3304C78.8546 13.6691 79.0146 13.1677 79.3346 12.8264C79.676 12.4637 80.1133 12.2824 80.6466 12.2824C81.1373 12.2824 81.5 12.3784 81.7346 12.5704C81.9906 12.7411 82.2893 13.0397 82.6306 13.4664L94.8866 29.3704H94.0546V14.2344C94.0546 13.6157 94.2146 13.1357 94.5346 12.7944C94.876 12.4531 95.356 12.2824 95.9746 12.2824C96.5933 12.2824 97.0626 12.4531 97.3826 12.7944C97.7026 13.1357 97.8626 13.6157 97.8626 14.2344V33.4344C97.8626 34.0317 97.7133 34.5011 97.4146 34.8424C97.116 35.1837 96.7106 35.3544 96.1986 35.3544C95.708 35.3544 95.3133 35.2584 95.0146 35.0664C94.7373 34.8744 94.428 34.5651 94.0866 34.1384L81.8626 18.2344H82.6626V33.3704C82.6626 34.0104 82.5026 34.5011 82.1826 34.8424C81.8626 35.1837 81.3933 35.3544 80.7746 35.3544ZM109.544 35.4184C107.923 35.4184 106.515 35.0877 105.32 34.4264C104.125 33.7651 103.197 32.8264 102.536 31.6104C101.875 30.3731 101.544 28.9224 101.544 27.2584C101.544 25.9997 101.725 24.8797 102.088 23.8984C102.472 22.8957 103.016 22.0424 103.72 21.3384C104.424 20.6131 105.267 20.0691 106.248 19.7064C107.229 19.3224 108.328 19.1304 109.544 19.1304C111.165 19.1304 112.573 19.4611 113.768 20.1224C114.963 20.7837 115.891 21.7224 116.552 22.9384C117.213 24.1544 117.544 25.5944 117.544 27.2584C117.544 28.5171 117.352 29.6477 116.968 30.6504C116.605 31.6531 116.072 32.5171 115.368 33.2424C114.664 33.9464 113.821 34.4904 112.84 34.8744C111.859 35.2371 110.76 35.4184 109.544 35.4184ZM109.544 32.3784C110.333 32.3784 111.027 32.1864 111.624 31.8024C112.221 31.4184 112.68 30.8531 113 30.1064C113.341 29.3384 113.512 28.3891 113.512 27.2584C113.512 25.5517 113.149 24.2824 112.424 23.4504C111.699 22.5971 110.739 22.1704 109.544 22.1704C108.755 22.1704 108.061 22.3624 107.464 22.7464C106.867 23.1091 106.397 23.6744 106.056 24.4424C105.736 25.1891 105.576 26.1277 105.576 27.2584C105.576 28.9437 105.939 30.2237 106.664 31.0984C107.389 31.9517 108.349 32.3784 109.544 32.3784ZM127.857 35.4184C126.471 35.4184 125.308 35.1837 124.369 34.7144C123.452 34.2451 122.769 33.5624 122.321 32.6664C121.873 31.7491 121.649 30.6184 121.649 29.2744V22.4584H119.985C119.473 22.4584 119.079 22.3304 118.801 22.0744C118.524 21.7971 118.385 21.4237 118.385 20.9544C118.385 20.4637 118.524 20.0904 118.801 19.8344C119.079 19.5784 119.473 19.4504 119.985 19.4504H121.649V16.5384C121.649 15.8771 121.82 15.3757 122.161 15.0344C122.524 14.6931 123.025 14.5224 123.665 14.5224C124.305 14.5224 124.796 14.6931 125.137 15.0344C125.479 15.3757 125.649 15.8771 125.649 16.5384V19.4504H129.041C129.553 19.4504 129.948 19.5784 130.225 19.8344C130.503 20.0904 130.641 20.4637 130.641 20.9544C130.641 21.4237 130.503 21.7971 130.225 22.0744C129.948 22.3304 129.553 22.4584 129.041 22.4584H125.649V29.0504C125.649 30.0744 125.873 30.8424 126.321 31.3544C126.769 31.8664 127.495 32.1224 128.497 32.1224C128.86 32.1224 129.18 32.0904 129.457 32.0264C129.735 31.9624 129.98 31.9197 130.193 31.8984C130.449 31.8771 130.663 31.9624 130.833 32.1544C131.004 32.3251 131.089 32.6877 131.089 33.2424C131.089 33.6691 131.015 34.0531 130.865 34.3944C130.737 34.7144 130.492 34.9384 130.129 35.0664C129.852 35.1517 129.489 35.2264 129.041 35.2904C128.593 35.3757 128.199 35.4184 127.857 35.4184ZM135.361 35.3544C134.721 35.3544 134.23 35.1837 133.889 34.8424C133.548 34.4797 133.377 33.9677 133.377 33.3064V14.2984C133.377 13.6371 133.548 13.1357 133.889 12.7944C134.23 12.4531 134.721 12.2824 135.361 12.2824C136.001 12.2824 136.492 12.4531 136.833 12.7944C137.196 13.1357 137.377 13.6371 137.377 14.2984V22.5864H136.929C137.398 21.4557 138.124 20.6024 139.105 20.0264C140.108 19.4291 141.238 19.1304 142.497 19.1304C143.756 19.1304 144.79 19.3651 145.601 19.8344C146.412 20.3037 147.02 21.0184 147.425 21.9784C147.83 22.9171 148.033 24.1117 148.033 25.5624V33.3064C148.033 33.9677 147.862 34.4797 147.521 34.8424C147.18 35.1837 146.689 35.3544 146.049 35.3544C145.409 35.3544 144.908 35.1837 144.545 34.8424C144.204 34.4797 144.033 33.9677 144.033 33.3064V25.7544C144.033 24.5384 143.798 23.6531 143.329 23.0984C142.881 22.5437 142.177 22.2664 141.217 22.2664C140.044 22.2664 139.105 22.6397 138.401 23.3864C137.718 24.1117 137.377 25.0824 137.377 26.2984V33.3064C137.377 34.6717 136.705 35.3544 135.361 35.3544ZM154.08 35.3224C153.44 35.3224 152.949 35.1304 152.608 34.7464C152.266 34.3624 152.096 33.8291 152.096 33.1464V21.4024C152.096 20.6984 152.266 20.1651 152.608 19.8024C152.949 19.4184 153.44 19.2264 154.08 19.2264C154.72 19.2264 155.21 19.4184 155.552 19.8024C155.914 20.1651 156.096 20.6984 156.096 21.4024V33.1464C156.096 33.8291 155.925 34.3624 155.584 34.7464C155.242 35.1304 154.741 35.3224 154.08 35.3224ZM154.08 16.2504C153.333 16.2504 152.746 16.0691 152.32 15.7064C151.914 15.3224 151.712 14.7997 151.712 14.1384C151.712 13.4557 151.914 12.9331 152.32 12.5704C152.746 12.2077 153.333 12.0264 154.08 12.0264C154.848 12.0264 155.434 12.2077 155.84 12.5704C156.245 12.9331 156.448 13.4557 156.448 14.1384C156.448 14.7997 156.245 15.3224 155.84 15.7064C155.434 16.0691 154.848 16.2504 154.08 16.2504ZM162.236 35.3544C161.596 35.3544 161.105 35.1837 160.764 34.8424C160.423 34.4797 160.252 33.9677 160.252 33.3064V21.2104C160.252 20.5491 160.423 20.0477 160.764 19.7064C161.105 19.3651 161.585 19.1944 162.204 19.1944C162.823 19.1944 163.303 19.3651 163.644 19.7064C163.985 20.0477 164.156 20.5491 164.156 21.2104V23.3864L163.804 22.5864C164.273 21.4557 164.999 20.6024 165.98 20.0264C166.983 19.4291 168.113 19.1304 169.372 19.1304C170.631 19.1304 171.665 19.3651 172.476 19.8344C173.287 20.3037 173.895 21.0184 174.3 21.9784C174.705 22.9171 174.908 24.1117 174.908 25.5624V33.3064C174.908 33.9677 174.737 34.4797 174.396 34.8424C174.055 35.1837 173.564 35.3544 172.924 35.3544C172.284 35.3544 171.783 35.1837 171.42 34.8424C171.079 34.4797 170.908 33.9677 170.908 33.3064V25.7544C170.908 24.5384 170.673 23.6531 170.204 23.0984C169.756 22.5437 169.052 22.2664 168.092 22.2664C166.919 22.2664 165.98 22.6397 165.276 23.3864C164.593 24.1117 164.252 25.0824 164.252 26.2984V33.3064C164.252 34.6717 163.58 35.3544 162.236 35.3544ZM186.267 41.1784C185.115 41.1784 183.995 41.0717 182.907 40.8584C181.84 40.6451 180.869 40.3144 179.995 39.8664C179.589 39.6531 179.312 39.3971 179.163 39.0984C179.035 38.7997 178.992 38.4904 179.035 38.1704C179.099 37.8717 179.227 37.6051 179.419 37.3704C179.632 37.1357 179.888 36.9757 180.187 36.8904C180.485 36.8051 180.795 36.8477 181.115 37.0184C182.053 37.4877 182.939 37.7864 183.771 37.9144C184.624 38.0637 185.349 38.1384 185.947 38.1384C187.376 38.1384 188.443 37.7864 189.147 37.0824C189.872 36.3997 190.235 35.3757 190.235 34.0104V31.1304H190.523C190.203 32.2184 189.531 33.0931 188.507 33.7544C187.504 34.3944 186.363 34.7144 185.083 34.7144C183.675 34.7144 182.448 34.3944 181.403 33.7544C180.357 33.0931 179.547 32.1757 178.971 31.0024C178.395 29.8291 178.107 28.4637 178.107 26.9064C178.107 25.7331 178.267 24.6771 178.587 23.7384C178.928 22.7784 179.397 21.9571 179.995 21.2744C180.613 20.5917 181.349 20.0691 182.203 19.7064C183.077 19.3224 184.037 19.1304 185.083 19.1304C186.405 19.1304 187.557 19.4611 188.539 20.1224C189.541 20.7624 190.192 21.6157 190.491 22.6824L190.171 23.4824V21.2104C190.171 20.5491 190.341 20.0477 190.683 19.7064C191.045 19.3651 191.536 19.1944 192.155 19.1944C192.795 19.1944 193.285 19.3651 193.627 19.7064C193.968 20.0477 194.139 20.5491 194.139 21.2104V33.5304C194.139 36.0691 193.467 37.9784 192.123 39.2584C190.779 40.5384 188.827 41.1784 186.267 41.1784ZM186.171 31.6744C187.003 31.6744 187.717 31.4824 188.315 31.0984C188.912 30.7144 189.371 30.1704 189.691 29.4664C190.032 28.7411 190.203 27.8877 190.203 26.9064C190.203 25.4344 189.84 24.2824 189.115 23.4504C188.389 22.5971 187.408 22.1704 186.171 22.1704C185.339 22.1704 184.624 22.3624 184.027 22.7464C183.429 23.1304 182.96 23.6744 182.619 24.3784C182.299 25.0824 182.139 25.9251 182.139 26.9064C182.139 28.3784 182.501 29.5411 183.227 30.3944C183.952 31.2477 184.933 31.6744 186.171 31.6744ZM209.403 35.3544C208.741 35.3544 208.229 35.1731 207.867 34.8104C207.525 34.4264 207.355 33.9037 207.355 33.2424V14.3944C207.355 13.7117 207.525 13.1891 207.867 12.8264C208.229 12.4637 208.741 12.2824 209.403 12.2824C210.064 12.2824 210.565 12.4637 210.907 12.8264C211.269 13.1891 211.451 13.7117 211.451 14.3944V21.9464H223.067V14.3944C223.067 13.7117 223.237 13.1891 223.579 12.8264C223.941 12.4637 224.453 12.2824 225.115 12.2824C225.776 12.2824 226.277 12.4637 226.619 12.8264C226.981 13.1891 227.163 13.7117 227.163 14.3944V33.2424C227.163 33.9037 226.981 34.4264 226.619 34.8104C226.277 35.1731 225.776 35.3544 225.115 35.3544C224.453 35.3544 223.941 35.1731 223.579 34.8104C223.237 34.4264 223.067 33.9037 223.067 33.2424V25.3704H211.451V33.2424C211.451 33.9037 211.28 34.4264 210.939 34.8104C210.597 35.1731 210.085 35.3544 209.403 35.3544ZM239.433 35.4184C237.662 35.4184 236.137 35.0877 234.857 34.4264C233.577 33.7651 232.585 32.8264 231.881 31.6104C231.198 30.3944 230.857 28.9544 230.857 27.2904C230.857 25.6691 231.187 24.2504 231.849 23.0344C232.531 21.8184 233.459 20.8691 234.633 20.1864C235.827 19.4824 237.182 19.1304 238.697 19.1304C239.806 19.1304 240.798 19.3117 241.673 19.6744C242.569 20.0371 243.326 20.5597 243.945 21.2424C244.585 21.9251 245.065 22.7571 245.385 23.7384C245.726 24.6984 245.897 25.7864 245.897 27.0024C245.897 27.3864 245.758 27.6851 245.481 27.8984C245.225 28.0904 244.851 28.1864 244.361 28.1864H234.089V25.8824H243.081L242.569 26.3624C242.569 25.3811 242.419 24.5597 242.121 23.8984C241.843 23.2371 241.427 22.7357 240.873 22.3944C240.339 22.0317 239.667 21.8504 238.857 21.8504C237.961 21.8504 237.193 22.0637 236.553 22.4904C235.934 22.8957 235.454 23.4824 235.113 24.2504C234.793 24.9971 234.633 25.8931 234.633 26.9384V27.1624C234.633 28.9117 235.038 30.2237 235.849 31.0984C236.681 31.9517 237.897 32.3784 239.497 32.3784C240.051 32.3784 240.67 32.3144 241.353 32.1864C242.057 32.0371 242.718 31.7917 243.337 31.4504C243.785 31.1944 244.179 31.0877 244.521 31.1304C244.862 31.1517 245.129 31.2691 245.321 31.4824C245.534 31.6957 245.662 31.9624 245.705 32.2824C245.747 32.5811 245.683 32.8904 245.513 33.2104C245.363 33.5304 245.097 33.8077 244.713 34.0424C243.966 34.5117 243.102 34.8637 242.121 35.0984C241.161 35.3117 240.265 35.4184 239.433 35.4184ZM251.112 35.3544C250.451 35.3544 249.939 35.1837 249.576 34.8424C249.235 34.4797 249.064 33.9677 249.064 33.3064V21.2104C249.064 20.5491 249.235 20.0477 249.576 19.7064C249.918 19.3651 250.398 19.1944 251.016 19.1944C251.635 19.1944 252.115 19.3651 252.456 19.7064C252.798 20.0477 252.968 20.5491 252.968 21.2104V23.2264H252.648C252.947 21.9464 253.534 20.9757 254.408 20.3144C255.283 19.6531 256.446 19.2584 257.896 19.1304C258.344 19.0877 258.696 19.2051 258.952 19.4824C259.23 19.7384 259.39 20.1437 259.432 20.6984C259.475 21.2317 259.347 21.6691 259.048 22.0104C258.771 22.3304 258.344 22.5224 257.768 22.5864L257.064 22.6504C255.763 22.7784 254.782 23.1837 254.12 23.8664C253.459 24.5277 253.128 25.4664 253.128 26.6824V33.3064C253.128 33.9677 252.958 34.4797 252.616 34.8424C252.275 35.1837 251.774 35.3544 251.112 35.3544ZM269.058 35.4184C267.287 35.4184 265.762 35.0877 264.482 34.4264C263.202 33.7651 262.21 32.8264 261.506 31.6104C260.823 30.3944 260.482 28.9544 260.482 27.2904C260.482 25.6691 260.812 24.2504 261.474 23.0344C262.156 21.8184 263.084 20.8691 264.258 20.1864C265.452 19.4824 266.807 19.1304 268.322 19.1304C269.431 19.1304 270.423 19.3117 271.298 19.6744C272.194 20.0371 272.951 20.5597 273.57 21.2424C274.21 21.9251 274.69 22.7571 275.01 23.7384C275.351 24.6984 275.522 25.7864 275.522 27.0024C275.522 27.3864 275.383 27.6851 275.106 27.8984C274.85 28.0904 274.476 28.1864 273.986 28.1864H263.714V25.8824H272.706L272.194 26.3624C272.194 25.3811 272.044 24.5597 271.746 23.8984C271.468 23.2371 271.052 22.7357 270.498 22.3944C269.964 22.0317 269.292 21.8504 268.482 21.8504C267.586 21.8504 266.818 22.0637 266.178 22.4904C265.559 22.8957 265.079 23.4824 264.738 24.2504C264.418 24.9971 264.258 25.8931 264.258 26.9384V27.1624C264.258 28.9117 264.663 30.2237 265.474 31.0984C266.306 31.9517 267.522 32.3784 269.122 32.3784C269.676 32.3784 270.295 32.3144 270.978 32.1864C271.682 32.0371 272.343 31.7917 272.962 31.4504C273.41 31.1944 273.804 31.0877 274.146 31.1304C274.487 31.1517 274.754 31.2691 274.946 31.4824C275.159 31.6957 275.287 31.9624 275.33 32.2824C275.372 32.5811 275.308 32.8904 275.138 33.2104C274.988 33.5304 274.722 33.8077 274.338 34.0424C273.591 34.5117 272.727 34.8637 271.746 35.0984C270.786 35.3117 269.89 35.4184 269.058 35.4184Z" fill="#343434"/>
</svg>
