<svg width="53" height="49" viewBox="0 0 53 49" fill="none" xmlns="http://www.w3.org/2000/svg">
<path d="M25.4354 8.70116L1.69022 26.8655C0.769927 27.5698 0.769927 28.9584 1.69022 29.6627L25.4354 47.826C26.0638 48.3068 26.9357 48.3068 27.5646 47.826L51.3098 29.6617C52.2301 28.9574 52.2301 27.5688 51.3098 26.8645L27.5646 8.70116C26.9362 8.22038 26.0643 8.22038 25.4354 8.70116Z" fill="#F3F5F4" stroke="#231815" stroke-miterlimit="10"/>
<path d="M25.4768 13.0973L2.73242 30.4962L25.4579 47.8456C26.0726 48.3153 26.9251 48.3137 27.5388 47.8424L50.5887 30.1367L27.5346 13.081C26.9214 12.6271 26.0826 12.6339 25.4768 13.0973Z" fill="#C3FFB2" stroke="#231815" stroke-miterlimit="10"/>
<path d="M25.6729 34.9759L7.2466 21.0287L6.73438 16.6287H46.2025L46.0362 20.6195L27.3253 34.9759C26.8372 35.345 26.1606 35.345 25.6729 34.9759Z" fill="#F3F5F4" stroke="#231815" stroke-miterlimit="10"/>
<path d="M25.6729 1.60721L7.24655 15.5551C6.5324 16.096 6.5324 17.1622 7.24655 17.703L25.6729 31.6502C26.1605 32.0194 26.8371 32.0194 27.3252 31.6502L45.7515 17.7022C46.4657 17.1614 46.4657 16.0952 45.7515 15.5543L27.3252 1.60721C26.8375 1.23803 26.1609 1.23803 25.6729 1.60721Z" fill="white" stroke="#231815" stroke-miterlimit="10"/>
</svg>
