<svg width="32" height="32" viewBox="0 0 32 32" fill="none" xmlns="http://www.w3.org/2000/svg">
<rect width="32" height="32" rx="8" fill="#F3F5F4"/>
<path d="M9.35476 15.2117C9.35478 15.0877 9.37968 14.9649 9.42801 14.8503C9.47633 14.7358 9.54714 14.6318 9.63638 14.5442C9.72564 14.4567 9.83152 14.3875 9.94801 14.3404C10.0645 14.2933 10.1893 14.2694 10.3152 14.27L11.9075 14.2751C12.1614 14.2751 12.4049 14.3745 12.5844 14.5513C12.7639 14.7282 12.8648 14.9681 12.8648 15.2183V21.1509C13.0441 21.0985 13.2743 21.0426 13.5262 20.9841C13.7012 20.9436 13.8572 20.8461 13.9688 20.7072C14.0804 20.5684 14.1411 20.3965 14.1411 20.2194V12.8602C14.1411 12.6101 14.2419 12.3701 14.4214 12.1932C14.601 12.0163 14.8444 11.9169 15.0984 11.9168H16.6939C16.9477 11.9169 17.1912 12.0163 17.3707 12.1932C17.5503 12.3701 17.6511 12.6101 17.6511 12.8602V19.6902C17.6511 19.6902 18.0506 19.5309 18.4397 19.3691C18.5842 19.3089 18.7076 19.2081 18.7944 19.0792C18.8811 18.9503 18.9275 18.7992 18.9276 18.6445V10.5022C18.9276 10.2521 19.0284 10.0122 19.2079 9.83528C19.3874 9.6584 19.6308 9.55902 19.8847 9.55896H21.4802C21.7341 9.55896 21.9775 9.65833 22.1571 9.83523C22.3366 10.0121 22.4374 10.252 22.4374 10.5022V17.2072C23.8207 16.2194 25.2225 15.0315 26.3349 13.6029C26.4964 13.3956 26.6031 13.1521 26.6458 12.8942C26.6884 12.6363 26.6656 12.372 26.5794 12.1249C26.0645 10.6651 25.246 9.32725 24.1762 8.19703C23.1065 7.06682 21.809 6.16908 20.3669 5.5613C18.9248 4.95351 17.3699 4.64906 15.8015 4.66741C14.2331 4.68576 12.6859 5.02652 11.2589 5.66788C9.83188 6.30924 8.55644 7.23707 7.51422 8.39201C6.472 9.54693 5.68594 10.9035 5.20636 12.375C4.72679 13.8464 4.56424 15.4003 4.72913 16.9372C4.89402 18.4741 5.38271 19.9602 6.16394 21.3003C6.30003 21.5315 6.50025 21.7196 6.74106 21.8425C6.98188 21.9655 7.2533 22.0182 7.52347 21.9944C7.82525 21.9683 8.201 21.9312 8.64775 21.8795C8.84223 21.8578 9.02178 21.7663 9.15219 21.6225C9.28262 21.4787 9.35478 21.2926 9.35495 21.0998L9.35476 15.2117Z" fill="#21325B"/>
<path d="M9.33331 25.0653C11.0241 26.3517 13.0223 27.1239 15.1067 27.2964C17.1911 27.4687 19.2805 27.0349 21.1437 26.0424C23.0069 25.0499 24.5711 23.5378 25.6636 21.6733C26.7559 19.8088 27.3339 17.6645 27.3333 15.4778C27.3333 15.205 27.3212 14.935 27.3039 14.6666C23.1629 21.1254 15.5172 24.145 9.33367 25.0644" fill="#979695"/>
</svg>
