<svg width="1282" height="617" viewBox="0 0 1282 617" fill="none" xmlns="http://www.w3.org/2000/svg">
  <g filter="url(#filter0_d_9_21)">
    <path d="M1 29.8251V341.148C1 357.069 13.8892 369.973 29.7914 369.973H659.644C675.546 369.973 688.435 382.878 688.435 398.798V579.175C688.435 595.096 701.324 608 717.227 608H1252.21C1268.11 608 1281 595.096 1281 579.175V29.8251C1281 13.9043 1268.11 1 1252.21 1H29.7914C13.8892 1 1 13.9043 1 29.8251Z" fill="#EDFAE4" />
    <path d="M1 29.8251V341.148C1 357.069 13.8892 369.973 29.7914 369.973H659.644C675.546 369.973 688.435 382.878 688.435 398.798V579.175C688.435 595.096 701.324 608 717.227 608H1252.21C1268.11 608 1281 595.096 1281 579.175V29.8251C1281 13.9043 1268.11 1 1252.21 1H29.7914C13.8892 1 1 13.9043 1 29.8251Z" stroke="black" stroke-width="0.8" stroke-miterlimit="10" />
  </g>
  <defs>
    <filter id="filter0_d_9_21" x="0.599976" y="0.600098" width="1280.8" height="615.8" filterUnits="userSpaceOnUse" color-interpolation-filters="sRGB">
      <feFlood flood-opacity="0" result="BackgroundImageFix" />
      <feColorMatrix in="SourceAlpha" type="matrix" values="0 0 0 0 0 0 0 0 0 0 0 0 0 0 0 0 0 0 127 0" result="hardAlpha" />
      <feOffset dy="8" />
      <feComposite in2="hardAlpha" operator="out" />
      <feColorMatrix type="matrix" values="0 0 0 0 0 0 0 0 0 0 0 0 0 0 0 0 0 0 1 0" />
      <feBlend mode="normal" in2="BackgroundImageFix" result="effect1_dropShadow_9_21" />
      <feBlend mode="normal" in="SourceGraphic" in2="effect1_dropShadow_9_21" result="shape" />
    </filter>
  </defs>
</svg>
