<svg width="26" height="30" viewBox="0 0 26 30" fill="none" xmlns="http://www.w3.org/2000/svg">
<path d="M23.3126 23.0088C26.2043 17.8932 24.2301 11.3368 19.1345 8.50616C17.0017 7.32296 14.6438 6.96795 12.4195 7.3339C12.3875 7.33782 12.0932 7.38441 12.0116 7.39703C7.54266 7.8373 5.46596 2.96722 5.1227 1.59396C5.0764 1.40046 4.82482 1.35871 4.717 1.52228C2.90541 4.18685 -2.85969 21.5358 8.73553 27.0832C12.7027 28.9796 19.1722 30.3481 23.3149 23.0178L23.3126 23.0088Z" fill="#B9A0FF"/>
<path fill-rule="evenodd" clip-rule="evenodd" d="M24.631 23.1679L24.6377 23.1932L24.3842 23.6417C22.1335 27.6243 19.154 29.3641 16.1137 29.7536C13.1542 30.1328 10.2963 29.214 8.21063 28.2169C1.75604 25.1289 0.239462 18.7529 0.46671 13.1699C0.581002 10.362 1.13215 7.6655 1.76863 5.50141C2.39269 3.37954 3.13509 1.64734 3.69899 0.815283C4.38877 -0.214362 6.00721 0.0173992 6.31871 1.28912C6.45325 1.82409 6.9815 3.19979 7.95788 4.36213C8.90809 5.49332 10.1715 6.30749 11.8601 6.15302L12.0468 6.12381L12.1698 6.10473L12.2178 6.09745L12.2188 6.0973C12.2229 6.09669 12.23 6.09564 12.2386 6.09442C14.7191 5.68991 17.3491 6.0882 19.7253 7.40644C25.2466 10.4735 27.512 17.4908 24.631 23.1679ZM18.5436 9.60588C23.0614 12.116 24.7744 17.9072 22.2433 22.3848L22.0205 22.779C20.1709 25.8377 17.9396 26.9939 15.8051 27.2674C13.5025 27.5625 11.1422 26.8489 9.26077 25.9496C4.12015 23.4902 2.72131 18.4178 2.93071 13.2734C3.03474 10.7176 3.53984 8.23054 4.13147 6.21894C4.36479 5.42563 4.60606 4.72471 4.83397 4.13439C5.16088 4.74183 5.57456 5.38473 6.08216 5.989C7.36727 7.51886 9.36655 8.91643 12.1306 8.64412L12.164 8.64083L12.1973 8.63568L12.4215 8.60059L12.5377 8.58256L12.5744 8.57699L12.5767 8.57666L12.5919 8.5748L12.6166 8.57073C14.5797 8.24774 16.6596 8.56087 18.5436 9.60588Z" fill="black"/>
<path fill-rule="evenodd" clip-rule="evenodd" d="M16.9712 18.0508C15.3057 17.2818 13.7137 17.1935 13.1609 17.239C12.4821 17.2949 11.8872 16.7811 11.8322 16.0914C11.7772 15.4017 12.2828 14.7972 12.9616 14.7413C13.8968 14.6643 15.9129 14.8097 17.9914 15.7694C20.1119 16.7485 22.3254 18.5927 23.4717 21.8985C23.698 22.5511 23.3608 23.2666 22.7185 23.4966C22.0762 23.7265 21.3721 23.3839 21.1457 22.7312C20.261 20.1799 18.5948 18.8005 16.9712 18.0508Z" fill="black"/>
</svg>
