<svg width="37" height="35" viewBox="0 0 37 35" fill="none" xmlns="http://www.w3.org/2000/svg">
<g clip-path="url(#clip0_106_2093)">
<path d="M22.2856 33.8242C14.9093 33.8242 8.92833 27.9216 8.92833 20.6473V20.8511C8.92833 19.6204 9.93953 18.6249 11.1859 18.6249H33.3931C34.6394 18.6249 35.6506 19.6204 35.6506 20.8511V20.6473C35.6506 27.9216 29.6697 33.8242 22.2934 33.8242H22.2856Z" fill="#B9A0FF" stroke="black" stroke-width="3" stroke-miterlimit="10"/>
<path d="M33.6517 13.6708C33.6361 6.60806 27.6316 1.0112 20.5689 1.17581C17.6137 1.24636 14.9171 2.31243 12.7928 4.04479C12.7615 4.06831 12.4793 4.29563 12.4009 4.35834C7.95633 7.53303 2.8533 3.74692 1.66965 2.53191C1.50504 2.35946 1.21501 2.4692 1.19933 2.70437C0.885779 6.56887 5.19709 28.0627 20.7335 26.7615C26.0482 26.3147 33.6831 23.7984 33.6596 13.6786L33.6517 13.6708Z" fill="#8DFF6D" stroke="black" stroke-width="3" stroke-miterlimit="10"/>
<path d="M19.4636 12.4009C20.7727 11.7503 26.3695 9.93953 31.3158 12.9888C37.7592 16.9552 34.953 24.8096 34.953 24.8096" stroke="black" stroke-width="3" stroke-linecap="round" stroke-linejoin="round"/>
</g>
<defs>
<clipPath id="clip0_106_2093">
<rect width="36.8186" height="35" fill="white"/>
</clipPath>
</defs>
</svg>
