<svg width="158" height="36" viewBox="0 0 158 36" fill="none" xmlns="http://www.w3.org/2000/svg">
<g clip-path="url(#clip0_106_2092)">
<path d="M23.2856 34.8242C15.9093 34.8242 9.92833 28.9216 9.92833 21.6473V21.8511C9.92833 20.6204 10.9395 19.6249 12.1859 19.6249H34.3931C35.6394 19.6249 36.6506 20.6204 36.6506 21.8511V21.6473C36.6506 28.9216 30.6697 34.8242 23.2934 34.8242H23.2856Z" fill="#B9A0FF" stroke="black" stroke-width="3" stroke-miterlimit="10"/>
<path d="M34.6517 14.6708C34.6361 7.60806 28.6316 2.0112 21.5689 2.17581C18.6137 2.24636 15.9171 3.31243 13.7928 5.04479C13.7615 5.06831 13.4793 5.29563 13.4009 5.35834C8.95633 8.53303 3.8533 4.74692 2.66965 3.53191C2.50504 3.35946 2.21501 3.4692 2.19933 3.70437C1.88578 7.56887 6.19709 29.0627 21.7335 27.7615C27.0482 27.3147 34.6831 24.7984 34.6596 14.6786L34.6517 14.6708Z" fill="#8DFF6D" stroke="black" stroke-width="3" stroke-miterlimit="10"/>
<path d="M20.4636 13.4009C21.7727 12.7503 27.3695 10.9395 32.3158 13.9888C38.7592 17.9552 35.953 25.8096 35.953 25.8096" stroke="black" stroke-width="3" stroke-linecap="round" stroke-linejoin="round"/>
</g>
<path d="M47.8186 6.60046H56.9468C62.5631 6.60046 67.4422 7.90736 67.4422 13.1886C67.4422 17.069 64.2989 18.1347 61.4572 18.4698V19.8102H64.9021C66.7384 19.8102 67.7437 20.8155 67.7437 22.6518V30.1715H62.3955V21.8811H53.1668V30.1715H47.8186V6.60046ZM56.9468 17.1964C60.1235 17.1964 62.0939 17.1964 62.0939 14.2542C62.0939 11.312 60.1235 11.2785 56.9468 11.2785H53.1668V17.1964H56.9468Z" fill="black"/>
<path d="M71.0814 6.60046H87.8968V11.2785H76.4296V16.0235H87.8968V20.7016H76.4296V25.4801H87.8968V30.1581H71.0814V6.60046Z" fill="black"/>
<path d="M109.859 14.8574C109.859 22.0085 105.315 23.1478 99.364 23.1478H96.2542V30.1715H90.906V6.60046H99.364C105.315 6.60046 109.859 7.73981 109.859 14.8574ZM104.511 14.8574C104.511 11.6136 102.876 11.2785 99.6991 11.2785H96.2542V18.4631H99.6991C102.876 18.4631 104.511 18.128 104.511 14.8507V14.8574Z" fill="black"/>
<path d="M156.767 11.2785H149.08V30.4999H143.731V11.2785H136.011V6.60046H156.774V11.2785H156.767Z" fill="black"/>
<path d="M127.097 11.8616C128.122 11.8616 128.947 12.6927 128.947 13.7114V23.0473C128.947 24.0727 128.116 24.8971 127.097 24.8971H120.107C119.081 24.8971 118.257 24.066 118.257 23.0473V13.7114C118.257 12.686 119.088 11.8616 120.107 11.8616H127.097ZM127.097 6.5H120.107C116.126 6.5 112.895 9.73708 112.895 13.7114V23.0473C112.895 27.0283 116.132 30.2587 120.107 30.2587H127.097C131.078 30.2587 134.308 27.0216 134.308 23.0473V13.7114C134.308 9.73038 131.071 6.5 127.097 6.5Z" fill="black"/>
<defs>
<clipPath id="clip0_106_2092">
<rect width="36.8186" height="35" fill="white" transform="translate(1 1)"/>
</clipPath>
</defs>
</svg>
