<svg width="55" height="12" viewBox="0 0 55 12" fill="none" xmlns="http://www.w3.org/2000/svg">
<path d="M0 0.0502319H4.5641C7.37226 0.0502319 9.81181 0.703682 9.81181 3.34429C9.81181 5.28454 8.24018 5.81735 6.81934 5.9849V6.65511H8.54177C9.45995 6.65511 9.96261 7.15776 9.96261 8.07595V11.8358H7.28849V7.69058H2.67412V11.8358H0V0.0502319ZM4.5641 5.34821C6.15249 5.34821 7.13769 5.34821 7.13769 3.87711C7.13769 2.40601 6.15249 2.38925 4.5641 2.38925H2.67412V5.34821H4.5641Z" fill="black"/>
<path d="M11.6314 0.0502319H20.0392V2.38925H14.3055V4.76178H20.0392V7.1008H14.3055V9.49008H20.0392V11.8291H11.6314V0.0502319Z" fill="black"/>
<path d="M31.0205 4.1787C31.0205 7.75425 28.7485 8.32392 25.7728 8.32392H24.2179V11.8358H21.5438V0.0502319H25.7728C28.7485 0.0502319 31.0205 0.619907 31.0205 4.1787ZM28.3464 4.1787C28.3464 2.5568 27.5287 2.38925 25.9403 2.38925H24.2179V5.98155H25.9403C27.5287 5.98155 28.3464 5.814 28.3464 4.17535V4.1787Z" fill="black"/>
<path d="M54.4743 2.38925H50.6307V12H47.9566V2.38925H44.0962V0.0502319H54.4777V2.38925H54.4743Z" fill="black"/>
<path d="M39.6393 2.68082C40.152 2.68082 40.5642 3.09635 40.5642 3.60571V8.27369C40.5642 8.7864 40.1487 9.19857 39.6393 9.19857H36.1442C35.6315 9.19857 35.2193 8.78305 35.2193 8.27369V3.60571C35.2193 3.093 35.6348 2.68082 36.1442 2.68082H39.6393ZM39.6393 0H36.1442C34.1537 0 32.5385 1.61855 32.5385 3.60571V8.27369C32.5385 10.2642 34.157 11.8794 36.1442 11.8794H39.6393C41.6298 11.8794 43.245 10.2609 43.245 8.27369V3.60571C43.245 1.6152 41.6265 0 39.6393 0Z" fill="black"/>
</svg>
